<svg width="180" height="52" viewBox="0 0 180 52" fill="none" xmlns="http://www.w3.org/2000/svg">
<path d="M179 46.0031C179 48.7742 176.709 51.0189 173.874 51.0189H6.13243C3.2995 51.0189 1 48.7742 1 46.0031V6.00351C1 3.23368 3.2995 0.98114 6.13243 0.98114H173.873C176.709 0.98114 178.999 3.23368 178.999 6.00351L179 46.0031Z" fill="black"/>
<path d="M173.333 1.04162C176.42 1.04162 178.932 3.4905 178.932 6.5V45.5C178.932 48.5095 176.42 50.9584 173.333 50.9584H6.66667C3.58 50.9584 1.06833 48.5095 1.06833 45.5V6.5C1.06833 3.4905 3.58 1.04162 6.66667 1.04162H173.333ZM173.333 2.74817e-06H6.66667C3.00167 2.74817e-06 0 2.92663 0 6.5V45.5C0 49.0734 3.00167 52 6.66667 52H173.333C176.998 52 180 49.0734 180 45.5V6.5C180 2.92663 176.998 2.74817e-06 173.333 2.74817e-06Z" fill="#A6A6A6"/>
<path d="M40.1705 25.7192C40.1318 21.5293 43.6891 19.4909 43.8518 19.396C41.8371 16.5321 38.7145 16.1408 37.6171 16.1096C34.9945 15.8405 32.4505 17.6397 31.1145 17.6397C29.7518 17.6397 27.6945 16.1356 25.4771 16.1798C22.6238 16.2227 19.9545 17.8334 18.4905 20.3346C15.4691 25.4345 17.7225 32.929 20.6171 37.0513C22.0651 39.0702 23.7571 41.3244 25.9718 41.2451C28.1385 41.158 28.9478 39.8983 31.5625 39.8983C34.1531 39.8983 34.9131 41.2451 37.1718 41.1944C39.4971 41.158 40.9611 39.1664 42.3585 37.1293C44.0318 34.8153 44.7038 32.5364 44.7305 32.4194C44.6758 32.4012 40.2145 30.7411 40.1705 25.7192Z" fill="white"/>
<path d="M35.9038 13.3978C37.0691 11.9769 37.8665 10.0438 37.6451 8.08209C35.9585 8.15489 33.8491 9.21959 32.6345 10.6093C31.5598 11.8339 30.5998 13.8411 30.8478 15.7287C32.7425 15.8665 34.6878 14.7966 35.9038 13.3978Z" fill="white"/>
<path d="M71.5269 40.9552H68.4989L66.8402 35.8735H61.0749L59.4949 40.9552H56.5469L62.2589 23.6548H65.7869L71.5269 40.9552ZM66.3402 33.7415L64.8402 29.224C64.6815 28.7625 64.3842 27.6757 63.9455 25.9649H63.8922C63.7175 26.7007 63.4362 27.7875 63.0495 29.224L61.5762 33.7415H66.3402Z" fill="white"/>
<path d="M86.2164 34.5644C86.2164 36.686 85.6284 38.363 84.4524 39.5941C83.399 40.69 82.091 41.2373 80.5297 41.2373C78.8444 41.2373 77.6337 40.6471 76.8964 39.4667H76.843V46.0382H74.0004V32.5871C74.0004 31.2533 73.9644 29.8844 73.895 28.4804H76.395L76.5537 30.4577H76.607C77.555 28.9679 78.9937 28.2243 80.9244 28.2243C82.4337 28.2243 83.6937 28.8054 84.7017 29.9689C85.7124 31.1337 86.2164 32.6651 86.2164 34.5644ZM83.3204 34.6658C83.3204 33.4516 83.0404 32.4506 82.4777 31.6628C81.863 30.8412 81.0377 30.4304 80.003 30.4304C79.3017 30.4304 78.6644 30.6592 78.095 31.1103C77.5243 31.5653 77.151 32.1594 76.9763 32.8952C76.8883 33.2384 76.8444 33.5192 76.8444 33.7402V35.8202C76.8444 36.7276 77.1297 37.4933 77.7004 38.1186C78.271 38.7439 79.0124 39.0559 79.9244 39.0559C80.995 39.0559 81.8284 38.6529 82.4244 37.8495C83.0217 37.0448 83.3204 35.984 83.3204 34.6658Z" fill="white"/>
<path d="M100.932 34.5644C100.932 36.686 100.344 38.363 99.167 39.5941C98.115 40.69 96.807 41.2373 95.2456 41.2373C93.5603 41.2373 92.3496 40.6471 91.6136 39.4667H91.5603V46.0382H88.7176V32.5871C88.7176 31.2533 88.6816 29.8844 88.6123 28.4804H91.1123L91.271 30.4577H91.3243C92.271 28.9679 93.7096 28.2243 95.6416 28.2243C97.1496 28.2243 98.4096 28.8054 99.4203 29.9689C100.427 31.1337 100.932 32.6651 100.932 34.5644ZM98.0363 34.6658C98.0363 33.4516 97.755 32.4506 97.1923 31.6628C96.5776 30.8412 95.755 30.4304 94.719 30.4304C94.0163 30.4304 93.3803 30.6592 92.8096 31.1103C92.239 31.5653 91.867 32.1594 91.6923 32.8952C91.6056 33.2384 91.5603 33.5192 91.5603 33.7402V35.8202C91.5603 36.7276 91.8456 37.4933 92.4136 38.1186C92.9843 38.7426 93.7256 39.0559 94.6403 39.0559C95.711 39.0559 96.5443 38.6529 97.1403 37.8495C97.7376 37.0448 98.0363 35.984 98.0363 34.6658Z" fill="white"/>
<path d="M117.385 36.1036C117.385 37.5752 116.861 38.7725 115.809 39.6968C114.653 40.7069 113.044 41.2113 110.976 41.2113C109.067 41.2113 107.536 40.8525 106.377 40.1336L107.036 37.8235C108.284 38.5593 109.653 38.9285 111.145 38.9285C112.216 38.9285 113.049 38.6919 113.648 38.2213C114.244 37.7507 114.541 37.1189 114.541 36.3311C114.541 35.6291 114.296 35.0376 113.804 34.5579C113.315 34.0782 112.497 33.6323 111.356 33.2202C108.249 32.0905 106.697 30.4356 106.697 28.2594C106.697 26.8372 107.241 25.6711 108.331 24.7637C109.416 23.855 110.864 23.4013 112.675 23.4013C114.289 23.4013 115.631 23.6756 116.701 24.2229L115.991 26.4823C114.991 25.9519 113.86 25.6867 112.595 25.6867C111.595 25.6867 110.813 25.9272 110.253 26.4056C109.78 26.8333 109.543 27.3546 109.543 27.9721C109.543 28.6559 109.813 29.2214 110.357 29.666C110.831 30.0768 111.691 30.5214 112.939 31.0011C114.465 31.6004 115.587 32.3011 116.308 33.1045C117.027 33.9053 117.385 34.9076 117.385 36.1036Z" fill="white"/>
<path d="M126.784 30.5604H123.651V36.6171C123.651 38.1576 124.203 38.9272 125.31 38.9272C125.818 38.9272 126.239 38.8843 126.572 38.7985L126.651 40.9032C126.091 41.1073 125.354 41.21 124.44 41.21C123.318 41.21 122.44 40.8759 121.807 40.209C121.176 39.5408 120.859 38.4202 120.859 36.8459V30.5578H118.992V28.4778H120.859V26.1937L123.651 25.3721V28.4778H126.784V30.5604Z" fill="white"/>
<path d="M140.922 34.6151C140.922 36.5326 140.359 38.1069 139.236 39.338C138.059 40.6055 136.496 41.2373 134.548 41.2373C132.671 41.2373 131.176 40.6302 130.062 39.416C128.947 38.2018 128.39 36.6691 128.39 34.8218C128.39 32.8887 128.963 31.3053 130.114 30.0742C131.262 28.8418 132.811 28.2256 134.759 28.2256C136.636 28.2256 138.147 28.8327 139.287 30.0482C140.378 31.2273 140.922 32.7496 140.922 34.6151ZM137.972 34.7048C137.972 33.5543 137.72 32.5676 137.21 31.7447C136.614 30.7489 135.762 30.2523 134.658 30.2523C133.515 30.2523 132.647 30.7502 132.051 31.7447C131.54 32.5689 131.288 33.5712 131.288 34.7568C131.288 35.9073 131.54 36.894 132.051 37.7156C132.666 38.7114 133.524 39.208 134.632 39.208C135.718 39.208 136.57 38.701 137.184 37.6896C137.708 36.8511 137.972 35.854 137.972 34.7048Z" fill="white"/>
<path d="M150.162 30.9179C149.88 30.8672 149.58 30.8412 149.266 30.8412C148.266 30.8412 147.492 31.2091 146.948 31.9462C146.475 32.5962 146.238 33.4178 146.238 34.4097V40.9552H143.396L143.423 32.409C143.423 30.9712 143.387 29.6621 143.316 28.4817H145.792L145.896 30.8685H145.975C146.275 30.0482 146.748 29.3878 147.396 28.8925C148.03 28.4466 148.714 28.2243 149.451 28.2243C149.714 28.2243 149.951 28.2425 150.162 28.275V30.9179Z" fill="white"/>
<path d="M162.875 34.1276C162.875 34.6242 162.842 35.0428 162.771 35.3847H154.243C154.276 36.6171 154.688 37.5596 155.48 38.2096C156.199 38.7907 157.128 39.0819 158.27 39.0819C159.532 39.0819 160.684 38.8856 161.72 38.4917L162.166 40.4157C160.955 40.9305 159.526 41.1866 157.876 41.1866C155.892 41.1866 154.335 40.6172 153.202 39.4797C152.071 38.3422 151.504 36.8147 151.504 34.8985C151.504 33.0174 152.031 31.4509 153.086 30.2016C154.19 28.8678 155.682 28.2009 157.559 28.2009C159.403 28.2009 160.799 28.8678 161.747 30.2016C162.498 31.2611 162.875 32.5715 162.875 34.1276ZM160.164 33.4087C160.183 32.5871 159.998 31.8773 159.612 31.278C159.12 30.5071 158.364 30.1223 157.347 30.1223C156.418 30.1223 155.662 30.498 155.084 31.252C154.611 31.8513 154.33 32.5702 154.243 33.4074H160.164V33.4087Z" fill="white"/>
<path d="M65.4002 13.0117C65.4002 14.5418 64.9295 15.6936 63.9895 16.4671C63.1189 17.1808 61.8815 17.5383 60.2789 17.5383C59.4842 17.5383 58.8042 17.5045 58.2349 17.4369V9.07664C58.9775 8.95964 59.7775 8.89984 60.6415 8.89984C62.1682 8.89984 63.3189 9.22354 64.0949 9.87094C64.9642 10.6028 65.4002 11.6493 65.4002 13.0117ZM63.9269 13.0494C63.9269 12.0575 63.6575 11.297 63.1189 10.7666C62.5802 10.2375 61.7935 9.97234 60.7575 9.97234C60.3175 9.97234 59.9429 10.0009 59.6322 10.0607V16.4164C59.8042 16.4424 60.1189 16.4541 60.5762 16.4541C61.6455 16.4541 62.4709 16.1642 63.0522 15.5844C63.6335 15.0046 63.9269 14.1596 63.9269 13.0494Z" fill="white"/>
<path d="M73.2122 14.3482C73.2122 15.2907 72.9362 16.0629 72.3842 16.6687C71.8055 17.2914 71.0388 17.6021 70.0815 17.6021C69.1588 17.6021 68.4242 17.3044 67.8762 16.7064C67.3295 16.1097 67.0562 15.357 67.0562 14.4496C67.0562 13.5006 67.3375 12.7219 67.9028 12.1174C68.4682 11.5129 69.2282 11.21 70.1855 11.21C71.1082 11.21 71.8495 11.5077 72.4108 12.1044C72.9442 12.6842 73.2122 13.433 73.2122 14.3482ZM71.7628 14.3924C71.7628 13.8269 71.6375 13.342 71.3882 12.9377C71.0948 12.4489 70.6775 12.2045 70.1348 12.2045C69.5735 12.2045 69.1468 12.4489 68.8535 12.9377C68.6028 13.342 68.4788 13.8347 68.4788 14.4171C68.4788 14.9826 68.6042 15.4675 68.8535 15.8718C69.1562 16.3606 69.5775 16.605 70.1215 16.605C70.6548 16.605 71.0735 16.3567 71.3748 15.8588C71.6335 15.4467 71.7628 14.9579 71.7628 14.3924Z" fill="white"/>
<path d="M83.6867 11.3347L81.7201 17.4629H80.4401L79.6254 14.8018C79.4187 14.1375 79.2507 13.4771 79.1201 12.8219H79.0947C78.9734 13.4953 78.8054 14.1544 78.5894 14.8018L77.7241 17.4629H76.4294L74.5801 11.3347H76.0161L76.7267 14.248C76.8987 14.937 77.0401 15.5935 77.1534 16.2149H77.1787C77.2827 15.7027 77.4547 15.0501 77.6974 14.261L78.5894 11.336H79.7281L80.5827 14.1986C80.7894 14.8967 80.9574 15.5688 81.0867 16.2162H81.1254C81.2201 15.5857 81.3627 14.9136 81.5521 14.1986L82.3147 11.336H83.6867V11.3347Z" fill="white"/>
<path d="M90.9307 17.463H89.5334V13.953C89.5334 12.8714 89.112 12.3306 88.2667 12.3306C87.852 12.3306 87.5174 12.4788 87.2574 12.7765C87 13.0742 86.8694 13.4252 86.8694 13.8269V17.4617H85.472V13.0859C85.472 12.5477 85.4547 11.964 85.4214 11.3322H86.6494L86.7147 12.2903H86.7534C86.9161 11.9926 87.1587 11.7469 87.4774 11.5506C87.856 11.3218 88.28 11.2061 88.744 11.2061C89.3307 11.2061 89.8187 11.3907 90.2067 11.7612C90.6894 12.2149 90.9307 12.8922 90.9307 13.7918V17.463Z" fill="white"/>
<path d="M94.7842 17.4629H93.3882V8.52283H94.7842V17.4629Z" fill="white"/>
<path d="M103.011 14.3482C103.011 15.2907 102.735 16.0629 102.183 16.6687C101.604 17.2914 100.836 17.6021 99.8803 17.6021C98.9563 17.6021 98.2216 17.3044 97.675 16.7064C97.1283 16.1097 96.855 15.357 96.855 14.4496C96.855 13.5006 97.1363 12.7219 97.7017 12.1174C98.267 11.5129 99.027 11.21 99.983 11.21C100.907 11.21 101.647 11.5077 102.21 12.1044C102.743 12.6842 103.011 13.433 103.011 14.3482ZM101.56 14.3924C101.56 13.8269 101.435 13.342 101.186 12.9377C100.894 12.4489 100.475 12.2045 99.9336 12.2045C99.371 12.2045 98.9443 12.4489 98.6523 12.9377C98.4016 13.342 98.2776 13.8347 98.2776 14.4171C98.2776 14.9826 98.403 15.4675 98.6523 15.8718C98.955 16.3606 99.3763 16.605 99.9203 16.605C100.454 16.605 100.871 16.3567 101.172 15.8588C101.432 15.4467 101.56 14.9579 101.56 14.3924Z" fill="white"/>
<path d="M109.774 17.463H108.519L108.415 16.7571H108.376C107.947 17.32 107.335 17.6021 106.54 17.6021C105.947 17.6021 105.467 17.4162 105.106 17.047C104.778 16.7116 104.614 16.2943 104.614 15.799C104.614 15.0502 104.934 14.4795 105.578 14.0843C106.22 13.6891 107.124 13.4954 108.288 13.5045V13.3901C108.288 12.5828 107.854 12.1798 106.983 12.1798C106.363 12.1798 105.816 12.3319 105.344 12.6335L105.06 11.7391C105.644 11.3868 106.366 11.21 107.216 11.21C108.859 11.21 109.683 12.055 109.683 13.745V16.0018C109.683 16.6141 109.714 17.1016 109.774 17.463ZM108.323 15.357V14.4119C106.782 14.3859 106.011 14.798 106.011 15.6469C106.011 15.9667 106.099 16.2059 106.279 16.3658C106.459 16.5257 106.688 16.605 106.962 16.605C107.268 16.605 107.555 16.5101 107.816 16.3216C108.079 16.1318 108.24 15.8913 108.3 15.5962C108.315 15.5299 108.323 15.4493 108.323 15.357Z" fill="white"/>
<path d="M117.713 17.4629H116.473L116.408 16.4788H116.369C115.973 17.2276 115.299 17.602 114.351 17.602C113.593 17.602 112.963 17.3121 112.463 16.7323C111.963 16.1525 111.713 15.3998 111.713 14.4755C111.713 13.4836 111.984 12.6802 112.528 12.0666C113.055 11.4946 113.7 11.2086 114.468 11.2086C115.312 11.2086 115.903 11.4855 116.239 12.0406H116.265V8.52283H117.664V15.8119C117.664 16.4086 117.68 16.9585 117.713 17.4629ZM116.265 14.8785V13.8567C116.265 13.6799 116.252 13.5369 116.227 13.4277C116.148 13.1001 115.979 12.8245 115.721 12.6022C115.461 12.3799 115.148 12.2681 114.787 12.2681C114.265 12.2681 113.857 12.4696 113.557 12.8739C113.26 13.2782 113.109 13.7943 113.109 14.4248C113.109 15.0306 113.252 15.522 113.539 15.9003C113.841 16.3033 114.249 16.5048 114.76 16.5048C115.219 16.5048 115.585 16.3371 115.864 16.0004C116.133 15.6897 116.265 15.3153 116.265 14.8785Z" fill="white"/>
<path d="M129.664 14.3482C129.664 15.2907 129.388 16.0629 128.836 16.6687C128.258 17.2914 127.492 17.6021 126.534 17.6021C125.612 17.6021 124.878 17.3044 124.328 16.7064C123.782 16.1097 123.508 15.357 123.508 14.4496C123.508 13.5006 123.79 12.7219 124.355 12.1174C124.92 11.5129 125.68 11.21 126.639 11.21C127.56 11.21 128.303 11.5077 128.863 12.1044C129.396 12.6842 129.664 13.433 129.664 14.3482ZM128.216 14.3924C128.216 13.8269 128.091 13.342 127.842 12.9377C127.547 12.4489 127.131 12.2045 126.587 12.2045C126.027 12.2045 125.6 12.4489 125.306 12.9377C125.055 13.342 124.931 13.8347 124.931 14.4171C124.931 14.9826 125.056 15.4675 125.306 15.8718C125.608 16.3606 126.03 16.605 126.574 16.605C127.107 16.605 127.527 16.3567 127.828 15.8588C128.086 15.4467 128.216 14.9579 128.216 14.3924Z" fill="white"/>
<path d="M137.177 17.463H135.781V13.953C135.781 12.8714 135.36 12.3306 134.513 12.3306C134.099 12.3306 133.764 12.4788 133.505 12.7765C133.247 13.0742 133.117 13.4252 133.117 13.8269V17.4617H131.719V13.0859C131.719 12.5477 131.703 11.964 131.669 11.3322H132.896L132.961 12.2903H133C133.164 11.9926 133.407 11.7469 133.724 11.5506C134.104 11.3218 134.527 11.2061 134.992 11.2061C135.577 11.2061 136.065 11.3907 136.453 11.7612C136.937 12.2149 137.177 12.8922 137.177 13.7918V17.463Z" fill="white"/>
<path d="M146.581 12.3552H145.043V15.3322C145.043 16.0888 145.316 16.4671 145.857 16.4671C146.108 16.4671 146.316 16.4463 146.48 16.4034L146.516 17.4369C146.24 17.5383 145.877 17.589 145.431 17.589C144.879 17.589 144.449 17.4252 144.139 17.0976C143.827 16.77 143.672 16.2188 143.672 15.4453V12.3552H142.753V11.3347H143.672V10.2115L145.041 9.80853V11.3334H146.58V12.3552H146.581Z" fill="white"/>
<path d="M153.979 17.4629H152.58V13.9789C152.58 12.8804 152.159 12.3305 151.315 12.3305C150.667 12.3305 150.224 12.649 149.981 13.286C149.94 13.4199 149.916 13.5837 149.916 13.7761V17.4616H148.52V8.52283H149.916V12.2161H149.943C150.383 11.544 151.013 11.2086 151.831 11.2086C152.409 11.2086 152.888 11.3932 153.268 11.7637C153.741 12.2252 153.979 12.9116 153.979 13.819V17.4629Z" fill="white"/>
<path d="M161.609 14.1089C161.609 14.3533 161.591 14.5587 161.557 14.7264H157.367C157.385 15.3322 157.585 15.7937 157.973 16.1135C158.328 16.3995 158.785 16.5425 159.345 16.5425C159.965 16.5425 160.531 16.4463 161.04 16.2526L161.259 17.199C160.663 17.4512 159.961 17.5773 159.149 17.5773C158.176 17.5773 157.409 17.2978 156.855 16.7388C156.297 16.1798 156.021 15.4297 156.021 14.4885C156.021 13.5642 156.279 12.7946 156.797 12.181C157.339 11.5258 158.071 11.1982 158.995 11.1982C159.899 11.1982 160.585 11.5258 161.049 12.181C161.424 12.701 161.609 13.3445 161.609 14.1089ZM160.276 13.7566C160.287 13.3523 160.195 13.0039 160.005 12.7101C159.763 12.3318 159.393 12.142 158.893 12.142C158.437 12.142 158.065 12.3266 157.781 12.6971C157.549 12.9922 157.412 13.3445 157.367 13.7566H160.276Z" fill="white"/>
</svg>
