<svg width="226" height="223" viewBox="0 0 226 223" fill="none" xmlns="http://www.w3.org/2000/svg">
<g opacity="0.3">
<path d="M108.765 130.379L14.8049 184.765L1 170.961L83.3688 115.613L108.765 130.379Z" stroke="#33E6BF"/>
<path d="M110.889 134.058L16.8091 188.237L21.8619 207.094L110.978 163.435L110.889 134.058Z" stroke="#33E6BF"/>
<path d="M114.624 134.058L208.703 188.237L203.65 207.094L114.534 163.434L114.624 134.058Z" stroke="#33E6BF"/>
<path d="M116.747 130.379L210.707 184.765L224.512 170.96L142.143 115.613L116.747 130.379Z" stroke="#33E6BF"/>
<path d="M114.624 126.36L114.504 17.7957L133.362 12.7427L140.11 111.75L114.624 126.36Z" stroke="#33E6BF"/>
<path d="M110.376 126.36L110.496 17.7957L91.6381 12.7427L84.8905 111.75L110.376 126.36Z" stroke="#33E6BF"/>
</g>
</svg>
