<svg width="30" height="30" viewBox="0 0 30 30" fill="none" xmlns="http://www.w3.org/2000/svg">
<g clip-path="url(#clip0_54_239)">
<path d="M10.8209 24.1213C10.6123 24.1602 10.5212 24.2581 10.5473 24.4142C10.5733 24.5703 10.6905 24.6225 10.8988 24.5703C11.1074 24.5183 11.1985 24.427 11.1723 24.2969C11.1464 24.1538 11.0292 24.0951 10.8209 24.1213Z" fill="white"/>
<path d="M9.70715 24.2777C9.49877 24.2777 9.39465 24.3489 9.39465 24.4924C9.39465 24.6617 9.50541 24.7331 9.72664 24.7071C9.93502 24.7071 10.0393 24.6355 10.0393 24.4924C10.0393 24.3234 9.92852 24.2515 9.70715 24.2777Z" fill="white"/>
<path d="M8.18378 24.2186C8.13179 24.3619 8.21648 24.4593 8.43765 24.5116C8.63296 24.5894 8.75671 24.5505 8.8087 24.3944C8.84783 24.2513 8.76314 24.1474 8.55483 24.0819C8.35945 24.03 8.23584 24.0749 8.18378 24.2186Z" fill="white"/>
<path d="M28.3496 1.65024C27.2493 0.550149 25.9247 0 24.3749 0H5.62497C4.07563 0 2.75061 0.550149 1.65024 1.65024C0.550149 2.75054 0 4.07556 0 5.62497V24.3752C0 25.9246 0.550149 27.2495 1.65024 28.3496C2.75054 29.4499 4.07563 30.0001 5.62497 30.0001H9.99995C10.2862 30.0001 10.5012 29.9902 10.6444 29.9711C10.7875 29.9514 10.9306 29.8667 11.0739 29.7168C11.2173 29.5672 11.2887 29.349 11.2887 29.0627C11.2887 29.0238 11.2853 28.5806 11.2789 27.7343C11.2722 26.8878 11.269 26.2173 11.269 25.7224L10.8198 25.8006C10.5333 25.8526 10.172 25.8755 9.73576 25.869C9.29971 25.8624 8.84712 25.817 8.37844 25.7323C7.9095 25.6475 7.47346 25.4523 7.06977 25.1466C6.66629 24.8403 6.37986 24.44 6.21055 23.9454L6.01517 23.4958C5.88499 23.1967 5.68003 22.8645 5.40003 22.5002C5.12004 22.1354 4.83689 21.888 4.55046 21.7578L4.41371 21.6601C4.32265 21.5951 4.23803 21.5166 4.15984 21.4256C4.08179 21.3342 4.02323 21.243 3.98417 21.1521C3.9451 21.0608 3.97753 20.9859 4.08179 20.9271C4.18604 20.8686 4.37465 20.8396 4.64822 20.8396L5.0387 20.8981C5.2992 20.9501 5.62127 21.1062 6.0056 21.3668C6.38965 21.6272 6.70536 21.9657 6.95279 22.3822C7.25243 22.9162 7.61342 23.3228 8.03681 23.6028C8.45985 23.8831 8.88638 24.0231 9.316 24.0231C9.74561 24.0231 10.1167 23.9905 10.4293 23.9257C10.7416 23.8604 11.0346 23.7625 11.3081 23.6323C11.4253 22.76 11.7444 22.0891 12.2651 21.6204C11.523 21.5422 10.8557 21.4251 10.2631 21.2688C9.67077 21.1124 9.05871 20.8587 8.42729 20.507C7.7956 20.1553 7.27158 19.7194 6.8549 19.1983C6.43828 18.6771 6.09637 17.9936 5.82965 17.1475C5.56278 16.3009 5.42931 15.3243 5.42931 14.2176C5.42931 12.6422 5.94382 11.3008 6.97243 10.1942C6.49055 9.00932 6.53604 7.68135 7.10904 6.20987C7.48666 6.09261 8.04666 6.18059 8.78876 6.47358C9.53101 6.76679 10.0745 7.01751 10.4196 7.22554C10.7648 7.43364 11.0414 7.60959 11.2498 7.75298C12.461 7.41442 13.7109 7.24517 14.9999 7.24517C16.2888 7.24517 17.5389 7.41442 18.7501 7.75298L19.4923 7.28424C20.0003 6.97161 20.5992 6.68518 21.2894 6.42488C21.9795 6.16451 22.5067 6.09282 22.8715 6.21007C23.4572 7.68156 23.5096 9.00952 23.0274 10.1943C24.056 11.3011 24.5706 12.6424 24.5706 14.2178C24.5706 15.3247 24.4371 16.3046 24.1703 17.1573C23.9036 18.0102 23.5588 18.694 23.1352 19.2083C22.7122 19.7226 22.1848 20.1553 21.5533 20.5071C20.9218 20.8585 20.3098 21.1127 19.7172 21.2686C19.1247 21.425 18.4575 21.5425 17.7154 21.6207C18.392 22.2065 18.7305 23.1307 18.7305 24.3939V29.062C18.7305 29.2835 18.7628 29.4624 18.8279 29.5991C18.8935 29.7358 18.9974 29.8299 19.1406 29.8824C19.2844 29.9344 19.4108 29.9669 19.5217 29.9798C19.6327 29.9929 19.7919 29.9995 20.0002 29.9995H24.3752C25.9246 29.9995 27.2497 29.4493 28.3495 28.349C29.4498 27.2487 29.9999 25.9236 29.9999 24.3743V5.62497C29.9998 4.07556 29.4496 2.75033 28.3496 1.65024Z" fill="white"/>
<path d="M5.93743 21.8361C5.84638 21.901 5.85938 22.0052 5.97656 22.1484C6.10695 22.2785 6.211 22.2982 6.28919 22.2069C6.38025 22.1421 6.36725 22.0379 6.24986 21.8943C6.11974 21.7774 6.01563 21.7577 5.93743 21.8361Z" fill="white"/>
<path d="M5.29278 21.3474C5.25379 21.4388 5.29935 21.517 5.42953 21.5818C5.53358 21.6471 5.61848 21.6343 5.6834 21.543C5.72239 21.4516 5.67683 21.3734 5.54665 21.3081C5.41647 21.269 5.33184 21.2821 5.29278 21.3474Z" fill="white"/>
<path d="M6.54307 22.5978C6.42575 22.6627 6.42575 22.7802 6.54307 22.9492C6.66026 23.1188 6.77074 23.1642 6.87506 23.0859C6.99231 22.9947 6.99231 22.871 6.87506 22.7147C6.77101 22.5458 6.66026 22.5063 6.54307 22.5978Z" fill="white"/>
<path d="M7.22729 23.4765C7.11003 23.5809 7.13589 23.7041 7.30541 23.8479C7.46145 24.0038 7.5917 24.0234 7.69589 23.9059C7.80015 23.802 7.77408 23.6784 7.61777 23.5352C7.46173 23.3792 7.33147 23.3595 7.22729 23.4765Z" fill="white"/>
</g>
<defs>
<clipPath id="clip0_54_239">
<rect width="30" height="30" fill="white"/>
</clipPath>
</defs>
</svg>
