<svg width="30" height="30" viewBox="0 0 30 30" fill="none" xmlns="http://www.w3.org/2000/svg">
<g clip-path="url(#clip0_54_258)">
<path d="M22.0312 5.33203H7.96875C6.51489 5.33203 5.33203 6.51489 5.33203 7.96875V22.0312C5.33203 23.4851 6.51489 24.668 7.96875 24.668H22.0312C23.4851 24.668 24.668 23.4851 24.668 22.0312V7.96875C24.668 6.51489 23.4851 5.33203 22.0312 5.33203ZM15 21.1523C11.608 21.1523 8.84766 18.392 8.84766 15C8.84766 11.608 11.608 8.84766 15 8.84766C18.392 8.84766 21.1523 11.608 21.1523 15C21.1523 18.392 18.392 21.1523 15 21.1523ZM21.1523 10.6055C20.1833 10.6055 19.3945 9.81674 19.3945 8.84766C19.3945 7.87857 20.1833 7.08984 21.1523 7.08984C22.1214 7.08984 22.9102 7.87857 22.9102 8.84766C22.9102 9.81674 22.1214 10.6055 21.1523 10.6055Z" fill="white"/>
<path d="M15 10.6055C12.5771 10.6055 10.6055 12.5771 10.6055 15C10.6055 17.4229 12.5771 19.3945 15 19.3945C17.4229 19.3945 19.3945 17.4229 19.3945 15C19.3945 12.5771 17.4229 10.6055 15 10.6055Z" fill="white"/>
<path d="M25.5469 0H4.45312C2.03018 0 0 2.03018 0 4.45312V25.5469C0 27.9698 2.03018 30 4.45312 30H25.5469C27.9698 30 30 27.9698 30 25.5469V4.45312C30 2.03018 27.9698 0 25.5469 0ZM26.4258 22.0312C26.4258 24.4542 24.4542 26.4258 22.0312 26.4258H7.96875C5.54581 26.4258 3.57422 24.4542 3.57422 22.0312V7.96875C3.57422 5.54581 5.54581 3.57422 7.96875 3.57422H22.0312C24.4542 3.57422 26.4258 5.54581 26.4258 7.96875V22.0312Z" fill="white"/>
</g>
<defs>
<clipPath id="clip0_54_258">
<rect width="30" height="30" fill="white"/>
</clipPath>
</defs>
</svg>
