<svg width="41" height="41" viewBox="0 0 41 41" fill="none" xmlns="http://www.w3.org/2000/svg">
<g clip-path="url(#clip0_21534_20530)">
<path d="M32.1667 6.89714H31.32L27.68 2.17714C27.2109 1.57348 26.6105 1.0845 25.9244 0.747225C25.2384 0.409955 24.4845 0.23324 23.72 0.230469L17.28 0.230469C16.5155 0.23324 15.7616 0.409955 15.0756 0.747225C14.3895 1.0845 13.7891 1.57348 13.32 2.17714L9.68 6.89714H8.83333C6.62401 6.89978 4.50593 7.7786 2.9437 9.34083C1.38147 10.9031 0.502646 13.0211 0.5 15.2305L0.5 31.8971C0.502646 34.1065 1.38147 36.2245 2.9437 37.7868C4.50593 39.349 6.62401 40.2278 8.83333 40.2305H32.1667C34.376 40.2278 36.4941 39.349 38.0563 37.7868C39.6185 36.2245 40.4974 34.1065 40.5 31.8971V15.2305C40.4974 13.0211 39.6185 10.9031 38.0563 9.34083C36.4941 7.7786 34.376 6.89978 32.1667 6.89714ZM15.96 4.2138C16.1161 4.01223 16.3162 3.84891 16.5449 3.73627C16.7736 3.62364 17.025 3.56465 17.28 3.5638H23.72C23.9749 3.5649 24.2262 3.62399 24.4549 3.73661C24.6836 3.84923 24.8837 4.01241 25.04 4.2138L27.11 6.89714H13.89L15.96 4.2138ZM37.1667 31.8971C37.1667 33.2232 36.6399 34.495 35.7022 35.4327C34.7645 36.3703 33.4927 36.8971 32.1667 36.8971H8.83333C7.50725 36.8971 6.23548 36.3703 5.2978 35.4327C4.36012 34.495 3.83333 33.2232 3.83333 31.8971V15.2305C3.83333 13.9044 4.36012 12.6326 5.2978 11.6949C6.23548 10.7573 7.50725 10.2305 8.83333 10.2305H32.1667C33.4927 10.2305 34.7645 10.7573 35.7022 11.6949C36.6399 12.6326 37.1667 13.9044 37.1667 15.2305V31.8971Z" fill="#81F8DE"/>
<path d="M20.5 13.564C18.5222 13.564 16.5888 14.1505 14.9443 15.2493C13.2998 16.3481 12.0181 17.9099 11.2612 19.7371C10.5043 21.5644 10.3063 23.5751 10.6922 25.5149C11.078 27.4547 12.0304 29.2365 13.4289 30.635C14.8275 32.0336 16.6093 32.986 18.5491 33.3718C20.4889 33.7577 22.4996 33.5596 24.3268 32.8028C26.1541 32.0459 27.7159 30.7642 28.8147 29.1197C29.9135 27.4752 30.5 25.5418 30.5 23.564C30.4974 20.9126 29.4429 18.3706 27.5681 16.4958C25.6934 14.621 23.1514 13.5666 20.5 13.564ZM20.5 30.2306C19.1815 30.2306 17.8925 29.8396 16.7962 29.1071C15.6999 28.3746 14.8454 27.3334 14.3408 26.1152C13.8362 24.897 13.7042 23.5566 13.9614 22.2634C14.2187 20.9702 14.8536 19.7823 15.786 18.8499C16.7183 17.9176 17.9062 17.2826 19.1994 17.0254C20.4926 16.7682 21.8331 16.9002 23.0512 17.4048C24.2694 17.9094 25.3106 18.7638 26.0431 19.8602C26.7757 20.9565 27.1667 22.2454 27.1667 23.564C27.1667 25.3321 26.4643 27.0278 25.2141 28.278C23.9638 29.5283 22.2681 30.2306 20.5 30.2306Z" fill="#81F8DE"/>
</g>
<defs>
<clipPath id="clip0_21534_20530">
<rect width="40" height="40" fill="white" transform="translate(0.5 0.230469)"/>
</clipPath>
</defs>
</svg>
