<svg width="40" height="41" viewBox="0 0 40 41" fill="none" xmlns="http://www.w3.org/2000/svg">
<g clip-path="url(#clip0_21534_20533)">
<path d="M25.0763 0.230254C25.0313 0.228587 14.9713 0.228587 14.9263 0.230254C10.3663 0.270254 6.66797 3.99359 6.66797 8.56192V31.8953C6.66797 36.4903 10.4063 40.2286 15.0013 40.2286H25.0013C29.5963 40.2286 33.3346 36.4903 33.3346 31.8953V8.56359C33.3346 3.99359 29.6363 0.271921 25.0763 0.230254ZM30.0013 31.8953C30.0013 34.6519 27.758 36.8953 25.0013 36.8953H15.0013C12.2446 36.8953 10.0013 34.6519 10.0013 31.8953V8.56359C10.0013 6.14192 11.7313 4.11859 14.0196 3.66025L15.1763 5.97525C15.458 6.54025 16.0363 6.89692 16.668 6.89692H23.3346C23.9663 6.89692 24.543 6.54025 24.8263 5.97525L25.983 3.66025C28.2713 4.11692 30.0013 6.14192 30.0013 8.56359V31.8953ZM21.668 33.5619H18.3346C17.4146 33.5619 16.668 32.8153 16.668 31.8953C16.668 30.9753 17.4146 30.2286 18.3346 30.2286H21.668C22.588 30.2286 23.3346 30.9753 23.3346 31.8953C23.3346 32.8153 22.588 33.5619 21.668 33.5619Z" fill="#81F8DE"/>
</g>
<defs>
<clipPath id="clip0_21534_20533">
<rect width="40" height="40" fill="white" transform="translate(0 0.230469)"/>
</clipPath>
</defs>
</svg>
