<svg width="40" height="41" viewBox="0 0 40 41" fill="none" xmlns="http://www.w3.org/2000/svg">
<g clip-path="url(#clip0_21622_14011)">
<path d="M28.332 0.5H20.4037C18.6237 0.5 16.9504 1.19333 15.6887 2.45333L11.952 6.19C10.7104 7.43 9.9987 9.14667 9.9987 10.9033V25.5C9.9987 30.095 13.737 33.8333 18.332 33.8333H28.332C32.927 33.8333 36.6654 30.095 36.6654 25.5V8.83333C36.6654 4.23833 32.927 0.5 28.332 0.5ZM33.332 25.5C33.332 28.2567 31.0887 30.5 28.332 30.5H18.332C15.5754 30.5 13.332 28.2567 13.332 25.5V10.9033C13.332 10.0267 13.687 9.16667 14.3087 8.54667L18.0454 4.81C18.6754 4.18 19.5137 3.83333 20.4037 3.83333H28.332C31.0887 3.83333 33.332 6.07667 33.332 8.83333V25.5ZM28.332 38.8333C28.332 39.755 27.5854 40.5 26.6654 40.5H18.332C10.062 40.5 3.33203 33.7717 3.33203 25.5V13.8333C3.33203 12.9117 4.0787 12.1667 4.9987 12.1667C5.9187 12.1667 6.66536 12.9117 6.66536 13.8333V25.5C6.66536 31.9317 11.8987 37.1667 18.332 37.1667H26.6654C27.5854 37.1667 28.332 37.9117 28.332 38.8333ZM29.9987 8.83333V10.5C29.9987 11.4217 29.252 12.1667 28.332 12.1667C27.412 12.1667 26.6654 11.4217 26.6654 10.5V8.83333C26.6654 7.91167 27.412 7.16667 28.332 7.16667C29.252 7.16667 29.9987 7.91167 29.9987 8.83333ZM24.9987 8.83333V10.5C24.9987 11.4217 24.252 12.1667 23.332 12.1667C22.412 12.1667 21.6654 11.4217 21.6654 10.5V8.83333C21.6654 7.91167 22.412 7.16667 23.332 7.16667C24.252 7.16667 24.9987 7.91167 24.9987 8.83333ZM19.9987 8.83333V10.5C19.9987 11.4217 19.252 12.1667 18.332 12.1667C17.412 12.1667 16.6654 11.4217 16.6654 10.5V8.83333C16.6654 7.91167 17.412 7.16667 18.332 7.16667C19.252 7.16667 19.9987 7.91167 19.9987 8.83333Z" fill="#81F8DE"/>
</g>
<defs>
<clipPath id="clip0_21622_14011">
<rect width="40" height="40" fill="white" transform="translate(0 0.5)"/>
</clipPath>
</defs>
</svg>
