<svg width="40" height="37" viewBox="0 0 40 37" fill="none" xmlns="http://www.w3.org/2000/svg">
<path d="M31.6667 0.0639648H8.33333C3.73333 0.0639648 0 3.7973 0 8.3973V25.064C0 28.4806 2.06667 31.414 5 32.6973V35.064C5 35.9806 5.75 36.7306 6.66667 36.7306C7.58333 36.7306 8.33333 35.9806 8.33333 35.064V33.3973H31.6667V35.064C31.6667 35.9806 32.4167 36.7306 33.3333 36.7306C34.25 36.7306 35 35.9806 35 35.064V32.6973C37.9333 31.414 40 28.464 40 25.064V8.3973C40 3.7973 36.2667 0.0639648 31.6667 0.0639648ZM36.6667 25.064C36.6667 27.814 34.4167 30.064 31.6667 30.064H8.33333C5.58333 30.064 3.33333 27.814 3.33333 25.064H5C5.91667 25.064 6.66667 24.314 6.66667 23.3973C6.66667 22.4806 5.91667 21.7306 5 21.7306H3.33333V11.7306H5C5.91667 11.7306 6.66667 10.9806 6.66667 10.064C6.66667 9.1473 5.91667 8.3973 5 8.3973H3.33333C3.33333 5.6473 5.58333 3.3973 8.33333 3.3973H31.6667C34.4167 3.3973 36.6667 5.6473 36.6667 8.3973V25.064ZM21.6667 6.73063C16.15 6.73063 11.6667 11.214 11.6667 16.7306C11.6667 22.2473 16.15 26.7306 21.6667 26.7306C27.1833 26.7306 31.6667 22.2473 31.6667 16.7306C31.6667 11.214 27.1833 6.73063 21.6667 6.73063ZM21.6667 23.3973C17.9833 23.3973 15 20.414 15 16.7306C15 13.0473 17.9833 10.064 21.6667 10.064C24.7667 10.064 27.3833 12.1973 28.1167 15.064H23.3333C22.4167 15.064 21.6667 15.814 21.6667 16.7306C21.6667 17.6473 22.4167 18.3973 23.3333 18.3973H28.1167C27.3667 21.264 24.7667 23.3973 21.6667 23.3973Z" fill="#81F8DE"/>
</svg>
