<svg width="41" height="39" viewBox="0 0 41 39" fill="none" xmlns="http://www.w3.org/2000/svg">
<path d="M40.5015 19.3972C40.4975 18.2735 40.2397 17.1653 39.7473 16.1552C39.255 15.1451 38.5408 14.2593 37.6581 13.5639C38.8793 12.6012 39.7695 11.2814 40.2046 9.7886C40.6397 8.29576 40.598 6.70434 40.0853 5.23635C39.5726 3.76835 38.6145 2.49699 37.3446 1.59962C36.0747 0.702257 34.5564 0.223641 33.0015 0.230542H8.00148C6.44655 0.223641 4.92823 0.702257 3.65834 1.59962C2.38846 2.49699 1.43034 3.76835 0.917638 5.23635C0.404939 6.70434 0.363236 8.29576 0.798344 9.7886C1.23345 11.2814 2.12367 12.6012 3.34482 13.5639C2.45906 14.2565 1.74266 15.1417 1.24996 16.1524C0.757263 17.1632 0.501203 18.2728 0.501203 19.3972C0.501203 20.5216 0.757263 21.6313 1.24996 22.642C1.74266 23.6527 2.45906 24.5379 3.34482 25.2305C2.12367 26.1932 1.23345 27.513 0.798344 29.0058C0.363236 30.4987 0.404939 32.0901 0.917638 33.5581C1.43034 35.0261 2.38846 36.2974 3.65834 37.1948C4.92823 38.0922 6.44655 38.5708 8.00148 38.5639H33.0015C34.5564 38.5708 36.0747 38.0922 37.3446 37.1948C38.6145 36.2974 39.5726 35.0261 40.0853 33.5581C40.598 32.0901 40.6397 30.4987 40.2046 29.0058C39.7695 27.513 38.8793 26.1932 37.6581 25.2305C38.5408 24.5351 39.255 23.6493 39.7473 22.6392C40.2397 21.6292 40.4975 20.5209 40.5015 19.3972ZM3.83482 7.73054C3.83482 6.62547 4.2738 5.56567 5.0552 4.78426C5.83661 4.00286 6.89641 3.56388 8.00148 3.56388H8.83482V5.23054C8.83482 5.67257 9.01041 6.09649 9.32297 6.40905C9.63553 6.72161 10.0595 6.89721 10.5015 6.89721C10.9435 6.89721 11.3674 6.72161 11.68 6.40905C11.9926 6.09649 12.1681 5.67257 12.1681 5.23054V3.56388H15.5015V5.23054C15.5015 5.67257 15.6771 6.09649 15.9896 6.40905C16.3022 6.72161 16.7261 6.89721 17.1681 6.89721C17.6102 6.89721 18.0341 6.72161 18.3467 6.40905C18.6592 6.09649 18.8348 5.67257 18.8348 5.23054V3.56388H33.0015C34.1065 3.56388 35.1664 4.00286 35.9478 4.78426C36.7292 5.56567 37.1681 6.62547 37.1681 7.73054C37.1681 8.83561 36.7292 9.89542 35.9478 10.6768C35.1664 11.4582 34.1065 11.8972 33.0015 11.8972H8.00148C6.89641 11.8972 5.83661 11.4582 5.0552 10.6768C4.2738 9.89542 3.83482 8.83561 3.83482 7.73054ZM37.1681 31.0639C37.1681 32.1689 36.7292 33.2288 35.9478 34.0102C35.1664 34.7916 34.1065 35.2305 33.0015 35.2305H8.00148C6.89641 35.2305 5.83661 34.7916 5.0552 34.0102C4.2738 33.2288 3.83482 32.1689 3.83482 31.0639C3.83482 29.9588 4.2738 28.899 5.0552 28.1176C5.83661 27.3362 6.89641 26.8972 8.00148 26.8972H8.83482V28.5639C8.83482 29.0059 9.01041 29.4298 9.32297 29.7424C9.63553 30.055 10.0595 30.2305 10.5015 30.2305C10.9435 30.2305 11.3674 30.055 11.68 29.7424C11.9926 29.4298 12.1681 29.0059 12.1681 28.5639V26.8972H15.5015V28.5639C15.5015 29.0059 15.6771 29.4298 15.9896 29.7424C16.3022 30.055 16.7261 30.2305 17.1681 30.2305C17.6102 30.2305 18.0341 30.055 18.3467 29.7424C18.6592 29.4298 18.8348 29.0059 18.8348 28.5639V26.8972H33.0015C34.1065 26.8972 35.1664 27.3362 35.9478 28.1176C36.7292 28.899 37.1681 29.9588 37.1681 31.0639ZM8.00148 23.5639C6.89641 23.5639 5.83661 23.1249 5.0552 22.3435C4.2738 21.5621 3.83482 20.5023 3.83482 19.3972C3.83482 18.2921 4.2738 17.2323 5.0552 16.4509C5.83661 15.6695 6.89641 15.2305 8.00148 15.2305H8.83482V16.8972C8.83482 17.3392 9.01041 17.7632 9.32297 18.0757C9.63553 18.3883 10.0595 18.5639 10.5015 18.5639C10.9435 18.5639 11.3674 18.3883 11.68 18.0757C11.9926 17.7632 12.1681 17.3392 12.1681 16.8972V15.2305H15.5015V16.8972C15.5015 17.3392 15.6771 17.7632 15.9896 18.0757C16.3022 18.3883 16.7261 18.5639 17.1681 18.5639C17.6102 18.5639 18.0341 18.3883 18.3467 18.0757C18.6592 17.7632 18.8348 17.3392 18.8348 16.8972V15.2305H33.0015C34.1065 15.2305 35.1664 15.6695 35.9478 16.4509C36.7292 17.2323 37.1681 18.2921 37.1681 19.3972C37.1681 20.5023 36.7292 21.5621 35.9478 22.3435C35.1664 23.1249 34.1065 23.5639 33.0015 23.5639H8.00148Z" fill="#81F8DE"/>
</svg>
